<?xml version="1.0" encoding="UTF-8"?>
<svg id="Layer_2" data-name="Layer 2" xmlns="http://www.w3.org/2000/svg" xmlns:xlink="http://www.w3.org/1999/xlink" viewBox="0 0 147.11 59.97">
  <defs>
    <style>
      .cls-1 {
        fill: url(#linear-gradient-2);
      }

      .cls-2 {
        clip-path: url(#clippath);
      }

      .cls-3 {
        fill: none;
      }

      .cls-4 {
        fill: url(#linear-gradient-3);
      }

      .cls-5 {
        fill: url(#linear-gradient);
      }
    </style>
    <linearGradient id="linear-gradient" x1="136.24" y1="36.03" x2="147.11" y2="36.03" gradientUnits="userSpaceOnUse">
      <stop offset="0" stop-color="#0076ff"/>
      <stop offset=".03" stop-color="#0069ff"/>
      <stop offset=".11" stop-color="#0057ff"/>
      <stop offset=".18" stop-color="#004bff"/>
      <stop offset=".26" stop-color="#0048ff"/>
      <stop offset=".36" stop-color="#0a40e8"/>
      <stop offset=".51" stop-color="#1637ce"/>
      <stop offset=".67" stop-color="#1f31bb"/>
      <stop offset=".83" stop-color="#242daf"/>
      <stop offset="1" stop-color="#262cac"/>
    </linearGradient>
    <clipPath id="clippath">
      <path class="cls-3" d="m54.46,26.02V4.4h7.78c3.72,0,6.23,2.14,6.23,5.33,0,2.4-1.65,4.45-3.96,4.87v.11c3,.36,5.08,2.38,5.08,5.38,0,3.69-2.74,5.93-7.31,5.93h-7.82Zm2.04-12.02h4.71c3.28,0,5.2-1.5,5.2-4.05,0-2.35-1.72-3.75-4.6-3.75h-5.3v7.79Zm5.5,10.2c3.54,0,5.5-1.54,5.5-4.23s-2.04-4.21-5.77-4.21h-5.23v8.44h5.5Zm9.64-2.5c0-2.67,1.99-4.29,5.59-4.53l4.85-.3v-1.35c0-2.25-1.42-3.6-3.85-3.6-2.29,0-3.76,1.12-4.11,3.01h-1.92c.22-2.79,2.52-4.76,6.07-4.76s5.78,1.99,5.78,5.17v10.67h-1.89v-2.97h-.04c-.87,1.93-3,3.22-5.32,3.22-3.07,0-5.17-1.84-5.17-4.57Zm10.44-1.54v-1.72l-4.62.32c-2.46.16-3.82,1.23-3.82,2.95s1.45,2.86,3.57,2.86c2.73,0,4.87-1.93,4.87-4.41Zm5.1-14.28c0-.73.6-1.32,1.32-1.32s1.33.58,1.33,1.32-.6,1.32-1.33,1.32-1.32-.58-1.32-1.32Zm.33,4.56h1.98v15.58h-1.98v-15.58Zm4.75,7.79c0-4.86,2.71-8.05,6.62-8.05,2.52,0,4.51,1.44,5.33,3.46h.04V4.4h1.99v21.62h-1.89v-3.3h-.04c-.88,2.1-2.88,3.55-5.39,3.55-3.94,0-6.67-3.21-6.67-8.05Zm2.04,0c0,3.81,1.98,6.29,4.97,6.29s5-2.52,5-6.29-2.04-6.29-5-6.29-4.97,2.49-4.97,6.29Zm28.24,3.37c-.46,2.7-3,4.67-6.43,4.67-4.38,0-7.09-3.06-7.09-8s2.74-8.09,6.97-8.09,6.74,3.04,6.74,7.69v.84h-11.67v.12c0,3.52,1.99,5.71,5.09,5.71,2.35,0,3.99-1.23,4.42-2.94h1.96Zm-11.46-4.47h9.62c-.04-3.07-1.92-5.21-4.74-5.21s-4.72,2.14-4.88,5.21Zm14.3-6.7h1.87v2.88h.04c.79-1.89,2.62-3.13,5.14-3.13,3.42,0,5.51,2.2,5.51,5.74v10.1h-1.98v-9.78c0-2.73-1.5-4.29-4.11-4.29s-4.51,1.95-4.51,4.84v9.23h-1.98v-15.58ZM53.59,44.5c0-6.77,3.76-11.1,9.64-11.1,4.57,0,8.18,2.98,8.77,7.21h-2.05c-.6-3.12-3.36-5.3-6.71-5.3-4.59,0-7.54,3.58-7.54,9.2s2.95,9.3,7.55,9.3c3.45,0,6.05-1.84,6.7-4.84h2.05c-.76,4.21-4.08,6.74-8.77,6.74-5.89,0-9.64-4.36-9.64-11.21Zm21.22-10.76h1.98v21.62h-1.98v-21.62Zm18.26,17.2c-.46,2.7-3,4.67-6.43,4.67-4.38,0-7.09-3.06-7.09-8s2.74-8.09,6.97-8.09,6.74,3.04,6.74,7.69v.84h-11.67v.12c0,3.52,1.99,5.71,5.09,5.71,2.35,0,3.99-1.23,4.42-2.94h1.96Zm-11.46-4.47h9.62c-.04-3.07-1.92-5.21-4.74-5.21s-4.72,2.14-4.88,5.21Zm13.75,4.57c0-2.67,1.99-4.29,5.59-4.53l4.85-.3v-1.35c0-2.25-1.42-3.6-3.85-3.6-2.29,0-3.76,1.12-4.11,3.01h-1.92c.22-2.79,2.52-4.76,6.07-4.76s5.78,1.99,5.78,5.17v10.67h-1.89v-2.97h-.04c-.87,1.93-3,3.22-5.32,3.22-3.07,0-5.17-1.84-5.17-4.57Zm10.44-1.54v-1.72l-4.62.31c-2.46.17-3.82,1.23-3.82,2.95s1.45,2.86,3.57,2.86c2.73,0,4.87-1.93,4.87-4.41Zm5.3-9.73h1.87v2.88h.04c.79-1.89,2.62-3.13,5.14-3.13,3.42,0,5.51,2.2,5.51,5.74v10.1h-1.98v-9.78c0-2.73-1.5-4.29-4.11-4.29s-4.51,1.95-4.51,4.84v9.23h-1.98v-15.58Zm21.13-.25c3.33,0,5.54,1.93,5.72,4.76h-1.9c-.25-1.95-1.66-3.13-3.82-3.13s-3.58,1.12-3.58,2.68c0,1.27.88,2.07,2.95,2.56l2.35.55c3.12.75,4.29,1.95,4.29,4.15,0,2.64-2.47,4.51-5.87,4.51s-5.86-1.87-6.13-4.72h1.98c.3,1.96,1.81,3.09,4.15,3.09s3.88-1.09,3.88-2.73c0-1.35-.76-2.1-2.86-2.61l-2.34-.55c-2.97-.69-4.36-1.99-4.36-4.15,0-2.58,2.29-4.42,5.54-4.42Z"/>
    </clipPath>
    <linearGradient id="linear-gradient-2" x1="53.59" y1="30.56" y2="30.56" xlink:href="#linear-gradient"/>
    <linearGradient id="linear-gradient-3" x1="0" y1="29.6" x2="45.98" y2="29.6" xlink:href="#linear-gradient"/>
  </defs>
  <g id="Layer_1-2" data-name="Layer 1">
    <g>
      <path class="cls-5" d="m141.72,30.47c-.08,1.04-.24,1.89-.39,2.49-.26,1.08-.47,1.44-.75,1.73-.31.31-.6.47-1.16.63-.8.24-1.53.37-2.44.54-.33.06-.59.11-.74.14.36,0,.87.02,1.49.08.72.07,1.07.11,1.48.27.21.08.93.37,1.48,1.08.39.49.51.94.71,1.75.14.56.3,1.38.33,2.39.12-1.02.22-1.81.3-2.37.03-.2.05-.33.09-.49.22-.81.74-1.37,1.14-1.71.67-.48,1.24-.66,1.63-.73.17-.03.48-.06,1.1-.13.46-.05.84-.08,1.09-.11-.28-.03-.65-.07-1.08-.14-.64-.11-1.11-.25-1.24-.29-1.18-.35-1.77-.52-2.14-1.06-.11-.16-.19-.41-.36-.93-.04-.12-.21-.62-.34-1.37-.08-.44-.17-1.04-.22-1.77Z"/>
      <g class="cls-2">
        <rect class="cls-1" x="53.59" y="1.15" width="93.52" height="58.82"/>
      </g>
      <path class="cls-4" d="m8.69,59.21c-.62-.42-1.24-.84-1.86-1.26.45-.66.89-1.31,1.34-1.97-.24.18-.55.39-.95.56-.76.33-1.45.36-1.86.34-.57-.39-1.14-.77-1.7-1.16.43-.04,1.31-.17,2.14-.82.34-.27.59-.55.77-.8-.61.24-1.37.48-2.26.63-.6.1-1.16.15-1.64.16-.88-.57-1.77-1.14-2.65-1.71.47.08,2.65.38,4.46-1.06.65-.52,1.07-1.11,1.32-1.57,2,1.44,4,2.89,6,4.33-1.03,1.44-2.07,2.88-3.1,4.33ZM35.82,14.29c-.12,1.18-.47,3.34-2.21,7.45-.94,2.23-2.43,5.29-4.75,8.69-5.11,7.27-10.22,14.54-15.33,21.81-1.95-1.42-3.9-2.84-5.84-4.26,1.19-1.74,2.38-3.49,3.56-5.24-.42-1.69-.87-3.81-1.2-6.28-.19-1.37-.56-4.54-.53-8.54.05-5.72.1-10.52,2.32-16.12C15.45,2.7,21.2.58,21.37.53c.34-.11.72-.19.72-.19,1.45-.34,4.35-.75,7.38.66,3.68,1.71,5.14,4.94,5.56,5.9,1.24,2.85.99,5.37.79,7.39Zm-6.71-1.85c0-.97,0-3.35-1.73-4.61-.19-.13-1.12-.79-2.36-.71-.48.03-1.54.19-3.45,2.19-1.86,1.93-2.82,3.8-2.93,4.02-2.32,4.63-2.73,9.39-2.83,10.8-.3,4.53.43,8.4,1.26,11.22,1.87-2.49,5.08-6.93,8.02-11.98,0,0,1.29-2.22,3.29-7.46.31-.81.73-1.94.73-3.46Zm16.76,28.69c-.1-.93-.54-3.93-2.61-7.12-2.05-3.14-4.57-4.73-5.35-5.19-1.18-.71-2.27-1.14-3.1-1.42l-3.7,6.29c.96.24,2.95.87,4.69,2.65,1.39,1.42,1.97,2.91,2.21,3.55.34.92.84,2.3.63,4.11-.17,1.47-.73,2.51-.99,2.99-1.36,2.48-3.53,3.55-4.15,3.84-.34.16-1.74.76-3.65.81-.65.01-1.75.03-3.04-.43-1.42-.51-2.32-1.33-3.24-2.17-.79-.72-1.37-1.41-1.77-1.92-1.48,2.14-2.97,4.27-4.45,6.41.34.27.85.66,1.47,1.12,1.96,1.45,2.94,2.18,4.26,2.87.88.46,2.18,1.12,4.01,1.47.39.08,1.73.32,3.52.22,3.46-.21,5.97-1.58,7.04-2.18.95-.53,2.75-1.57,4.49-3.58.66-.76,2.49-3.02,3.36-6.52.6-2.42.52-4.48.37-5.78Z"/>
    </g>
  </g>
</svg>