<?xml version="1.0" encoding="UTF-8"?>
<svg id="Layer_2" data-name="Layer 2" xmlns="http://www.w3.org/2000/svg" viewBox="0 0 135.81 54.66">
  <defs>
    <style>
      .cls-1 {
        fill: #fff;
      }
    </style>
  </defs>
  <g id="Layer_1-2" data-name="Layer 1">
    <g>
      <g>
        <path class="cls-1" d="m130.84,28.13c-.07.96-.22,1.74-.36,2.3-.24.99-.43,1.33-.69,1.59-.29.28-.55.43-1.07.58-.74.22-1.41.34-2.25.49-.3.06-.55.1-.68.13.33,0,.81.02,1.38.07.66.07.99.11,1.37.25.2.08.86.34,1.37,1,.36.45.47.87.66,1.62.13.52.28,1.27.31,2.21.11-.94.21-1.67.28-2.19.03-.18.04-.3.09-.46.2-.75.68-1.26,1.05-1.58.62-.44,1.14-.61,1.51-.68.15-.03.44-.06,1.02-.12.43-.04.77-.08,1.01-.1-.26-.02-.6-.06-1-.13-.59-.11-1.02-.23-1.14-.27-1.09-.32-1.63-.48-1.98-.98-.1-.14-.18-.38-.33-.86-.04-.11-.2-.57-.32-1.26-.07-.4-.15-.96-.21-1.63Z"/>
        <g>
          <path class="cls-1" d="m50.27,24.02V4.07h7.17c3.43,0,5.75,1.98,5.75,4.92,0,2.21-1.52,4.11-3.65,4.49v.1c2.76.33,4.69,2.2,4.69,4.96,0,3.4-2.53,5.47-6.75,5.47h-7.22Zm1.88-11.09h4.34c3.03,0,4.8-1.38,4.8-3.73,0-2.17-1.59-3.46-4.24-3.46h-4.89v7.19Zm5.07,9.42c3.26,0,5.07-1.42,5.07-3.9s-1.88-3.88-5.32-3.88h-4.83v7.78h5.07Z"/>
          <path class="cls-1" d="m66.14,20.04c0-2.46,1.84-3.95,5.16-4.17l4.48-.28v-1.24c0-2.07-1.31-3.32-3.55-3.32-2.12,0-3.47,1.04-3.79,2.78h-1.77c.21-2.57,2.32-4.4,5.6-4.4s5.34,1.84,5.34,4.77v9.84h-1.74v-2.74h-.04c-.8,1.78-2.76,2.97-4.91,2.97-2.83,0-4.77-1.7-4.77-4.22Zm9.64-1.42v-1.59l-4.26.29c-2.27.15-3.53,1.13-3.53,2.72s1.34,2.64,3.29,2.64c2.52,0,4.49-1.78,4.49-4.06Z"/>
          <path class="cls-1" d="m80.49,5.44c0-.68.55-1.22,1.22-1.22s1.23.54,1.23,1.22-.55,1.22-1.23,1.22-1.22-.54-1.22-1.22Zm.3,4.2h1.83v14.38h-1.83v-14.38Z"/>
          <path class="cls-1" d="m85.18,16.83c0-4.48,2.5-7.42,6.11-7.42,2.32,0,4.16,1.33,4.92,3.19h.04V4.07h1.84v19.95h-1.74v-3.04h-.04c-.82,1.94-2.65,3.28-4.98,3.28-3.64,0-6.15-2.96-6.15-7.42Zm1.88,0c0,3.51,1.83,5.81,4.59,5.81s4.62-2.32,4.62-5.81-1.88-5.81-4.62-5.81-4.59,2.29-4.59,5.81Z"/>
          <path class="cls-1" d="m113.12,19.94c-.43,2.49-2.77,4.31-5.93,4.31-4.04,0-6.54-2.82-6.54-7.38s2.53-7.46,6.43-7.46,6.22,2.81,6.22,7.09v.77h-10.77v.11c0,3.25,1.84,5.27,4.7,5.27,2.17,0,3.68-1.13,4.08-2.71h1.81Zm-10.58-4.12h8.88c-.04-2.83-1.77-4.81-4.37-4.81s-4.35,1.98-4.51,4.81Z"/>
          <path class="cls-1" d="m115.75,9.64h1.73v2.65h.04c.73-1.74,2.42-2.89,4.74-2.89,3.15,0,5.09,2.03,5.09,5.29v9.32h-1.83v-9.03c0-2.52-1.38-3.95-3.79-3.95s-4.16,1.8-4.16,4.46v8.52h-1.82v-14.38Z"/>
          <path class="cls-1" d="m49.47,41.09c0-6.25,3.47-10.24,8.89-10.24,4.22,0,7.55,2.75,8.09,6.65h-1.89c-.55-2.88-3.1-4.89-6.19-4.89-4.23,0-6.95,3.3-6.95,8.49s2.72,8.58,6.97,8.58c3.18,0,5.58-1.7,6.18-4.46h1.89c-.71,3.88-3.76,6.22-8.09,6.22-5.43,0-8.89-4.02-8.89-10.34Z"/>
          <path class="cls-1" d="m69.07,31.16h1.83v19.95h-1.83v-19.95Z"/>
          <path class="cls-1" d="m85.92,47.03c-.43,2.49-2.77,4.31-5.93,4.31-4.04,0-6.54-2.82-6.54-7.38s2.53-7.46,6.43-7.46,6.22,2.81,6.22,7.09v.77h-10.77v.11c0,3.25,1.84,5.27,4.7,5.27,2.17,0,3.68-1.13,4.08-2.71h1.81Zm-10.58-4.12h8.88c-.04-2.83-1.77-4.81-4.37-4.81s-4.35,1.98-4.51,4.81Z"/>
          <path class="cls-1" d="m88.04,47.13c0-2.46,1.84-3.95,5.16-4.17l4.48-.28v-1.24c0-2.07-1.31-3.32-3.55-3.32-2.12,0-3.47,1.04-3.79,2.78h-1.77c.21-2.57,2.32-4.4,5.6-4.4s5.34,1.84,5.34,4.77v9.84h-1.74v-2.74h-.04c-.8,1.78-2.76,2.97-4.91,2.97-2.83,0-4.77-1.7-4.77-4.22Zm9.64-1.42v-1.59l-4.26.29c-2.27.15-3.53,1.13-3.53,2.72s1.34,2.64,3.29,2.64c2.52,0,4.49-1.78,4.49-4.06Z"/>
          <path class="cls-1" d="m102.57,36.73h1.73v2.65h.04c.73-1.74,2.42-2.89,4.74-2.89,3.15,0,5.09,2.03,5.09,5.29v9.32h-1.83v-9.03c0-2.52-1.38-3.95-3.79-3.95s-4.16,1.8-4.16,4.46v8.52h-1.82v-14.38Z"/>
          <path class="cls-1" d="m122.08,36.5c3.07,0,5.12,1.78,5.28,4.4h-1.76c-.23-1.8-1.53-2.89-3.53-2.89s-3.3,1.04-3.3,2.47c0,1.17.82,1.91,2.72,2.36l2.17.51c2.88.69,3.95,1.8,3.95,3.83,0,2.43-2.28,4.16-5.42,4.16s-5.41-1.73-5.65-4.35h1.82c.28,1.81,1.67,2.85,3.83,2.85s3.58-1.01,3.58-2.52c0-1.24-.71-1.93-2.64-2.41l-2.16-.51c-2.74-.64-4.02-1.84-4.02-3.83,0-2.38,2.11-4.08,5.11-4.08Z"/>
        </g>
      </g>
      <path class="cls-1" d="m8.02,54.66c-.57-.39-1.14-.78-1.72-1.17.41-.61.82-1.21,1.24-1.82-.22.17-.51.36-.88.52-.7.3-1.34.33-1.72.32-.52-.36-1.05-.71-1.57-1.07.39-.03,1.21-.16,1.97-.76.32-.25.55-.51.71-.74-.56.22-1.27.44-2.09.58-.56.09-1.07.13-1.52.14-.82-.53-1.63-1.05-2.45-1.58.44.07,2.45.35,4.12-.97.6-.48.99-1.02,1.22-1.45,1.85,1.33,3.7,2.66,5.54,4-.95,1.33-1.91,2.66-2.86,3.99ZM33.07,13.19c-.11,1.09-.44,3.09-2.04,6.88-.87,2.06-2.24,4.88-4.39,8.02-4.72,6.71-9.43,13.42-14.15,20.13-1.8-1.31-3.6-2.62-5.39-3.93,1.1-1.61,2.19-3.22,3.29-4.83-.39-1.56-.8-3.52-1.11-5.8-.17-1.27-.52-4.19-.49-7.88.05-5.28.09-9.72,2.14-14.89C14.26,2.5,19.57.53,19.73.48c.32-.1.67-.18.67-.18,1.34-.32,4.02-.7,6.81.61,3.4,1.58,4.75,4.56,5.13,5.45,1.15,2.63.91,4.96.73,6.83Zm-6.19-1.71c0-.89,0-3.09-1.6-4.26-.17-.12-1.03-.72-2.18-.66-.45.03-1.42.18-3.19,2.02-1.72,1.78-2.6,3.51-2.7,3.71-2.14,4.28-2.52,8.67-2.61,9.97-.28,4.19.4,7.75,1.16,10.36,1.73-2.29,4.69-6.4,7.4-11.06,0,0,1.19-2.05,3.04-6.88.29-.75.67-1.79.67-3.2Zm15.47,26.48c-.1-.86-.5-3.63-2.41-6.57-1.89-2.9-4.22-4.36-4.94-4.79-1.09-.65-2.09-1.05-2.86-1.31l-3.41,5.81c.88.22,2.72.81,4.33,2.44,1.29,1.31,1.82,2.69,2.04,3.28.31.85.78,2.12.59,3.79-.16,1.36-.67,2.31-.91,2.76-1.26,2.29-3.26,3.28-3.83,3.54-.32.14-1.61.71-3.37.75-.6.01-1.61.03-2.81-.4-1.31-.47-2.14-1.23-2.99-2-.73-.67-1.27-1.3-1.63-1.77-1.37,1.97-2.74,3.94-4.11,5.92.32.25.78.61,1.36,1.03,1.81,1.34,2.71,2.01,3.93,2.65.81.42,2.01,1.03,3.71,1.36.36.07,1.6.3,3.25.2,3.19-.19,5.51-1.46,6.5-2.02.88-.49,2.54-1.45,4.15-3.3.61-.7,2.29-2.79,3.11-6.02.56-2.23.48-4.14.35-5.33Z"/>
    </g>
  </g>
</svg>