<?xml version="1.0" encoding="UTF-8"?>
<svg id="Layer_2" data-name="Layer 2" xmlns="http://www.w3.org/2000/svg" xmlns:xlink="http://www.w3.org/1999/xlink" viewBox="0 0 74.44 95.85">
  <defs>
    <style>
      .cls-1 {
        fill: url(#linear-gradient);
      }
    </style>
    <linearGradient id="linear-gradient" x1="0" y1="47.92" x2="74.44" y2="47.92" gradientUnits="userSpaceOnUse">
      <stop offset="0" stop-color="#0076ff"/>
      <stop offset=".03" stop-color="#0069ff"/>
      <stop offset=".11" stop-color="#0057ff"/>
      <stop offset=".18" stop-color="#004bff"/>
      <stop offset=".26" stop-color="#0048ff"/>
      <stop offset=".36" stop-color="#0a40e8"/>
      <stop offset=".51" stop-color="#1637ce"/>
      <stop offset=".67" stop-color="#1f31bb"/>
      <stop offset=".83" stop-color="#242daf"/>
      <stop offset="1" stop-color="#262cac"/>
    </linearGradient>
  </defs>
  <g id="Layer_1-2" data-name="Layer 1">
    <path class="cls-1" d="m14.06,95.85c-1-.68-2.01-1.36-3.01-2.05.72-1.06,1.45-2.13,2.17-3.19-.38.3-.89.64-1.54.91-1.23.53-2.34.58-3.01.56-.92-.63-1.84-1.25-2.76-1.88.69-.06,2.12-.28,3.46-1.32.56-.43.96-.9,1.24-1.29-.99.39-2.22.77-3.66,1.02-.98.16-1.87.23-2.66.25-1.43-.92-2.86-1.85-4.3-2.77.77.12,4.29.61,7.22-1.71,1.06-.84,1.73-1.8,2.14-2.54,3.24,2.34,6.48,4.67,9.72,7.01-1.67,2.33-3.35,4.67-5.02,7ZM57.99,23.13c-.19,1.91-.77,5.41-3.58,12.07-1.52,3.62-3.93,8.56-7.7,14.06-8.27,11.77-16.54,23.53-24.81,35.31-3.15-2.3-6.31-4.6-9.46-6.89,1.92-2.82,3.85-5.65,5.77-8.48-.68-2.74-1.4-6.17-1.94-10.16-.3-2.22-.91-7.35-.85-13.83.09-9.25.16-17.04,3.75-26.1C25.01,4.38,34.32.93,34.59.85c.56-.17,1.17-.31,1.17-.31,2.34-.55,7.04-1.22,11.95,1.07,5.95,2.77,8.33,7.99,9,9.55,2.01,4.61,1.6,8.69,1.28,11.97Zm-10.86-3c0-1.56,0-5.42-2.8-7.47-.31-.22-1.81-1.27-3.82-1.16-.78.05-2.49.31-5.59,3.54-3.01,3.13-4.56,6.15-4.74,6.51-3.76,7.5-4.43,15.21-4.57,17.49-.49,7.34.69,13.6,2.04,18.16,3.02-4.02,8.23-11.22,12.98-19.4,0,0,2.09-3.6,5.32-12.07.5-1.31,1.18-3.15,1.18-5.61Zm27.13,46.44c-.17-1.5-.87-6.37-4.23-11.53-3.32-5.08-7.4-7.65-8.67-8.4-1.91-1.14-3.67-1.85-5.02-2.3l-5.98,10.18c1.55.38,4.77,1.41,7.59,4.28,2.26,2.3,3.19,4.71,3.58,5.75.54,1.48,1.36,3.73,1.03,6.65-.27,2.38-1.18,4.06-1.6,4.83-2.2,4.01-5.71,5.75-6.72,6.21-.56.25-2.82,1.24-5.91,1.31-1.05.02-2.83.05-4.93-.7-2.3-.82-3.75-2.15-5.25-3.51-1.28-1.17-2.22-2.28-2.86-3.11-2.4,3.46-4.81,6.91-7.21,10.37.56.44,1.37,1.07,2.38,1.81,3.17,2.35,4.75,3.53,6.9,4.64,1.43.74,3.53,1.81,6.5,2.39.63.13,2.81.52,5.7.35,5.6-.34,9.66-2.56,11.39-3.53,1.54-.86,4.46-2.54,7.27-5.79,1.07-1.23,4.02-4.89,5.44-10.56.98-3.92.85-7.26.61-9.35Z"/>
  </g>
</svg>